<svg id="Layer_1" data-name="Layer 1" xmlns="http://www.w3.org/2000/svg" viewBox="0 0 50 50"><defs><style>.cls-1{fill:none;}.cls-2{fill:#a60065;}</style></defs><title>ico_alta</title><rect class="cls-1" width="50" height="50"/><path class="cls-2" d="M15,42.35H35L45,25,35,7.65H15L5,25ZM35.9,45.41H14.1a1.53,1.53,0,0,1-1.33-.77L1.87,25.77a1.53,1.53,0,0,1,0-1.53L12.77,5.35a1.53,1.53,0,0,1,1.33-.77H35.9a1.53,1.53,0,0,1,1.33.77l10.9,18.88a1.53,1.53,0,0,1,0,1.53L37.23,44.65a1.53,1.53,0,0,1-1.33.77"/></svg>