<svg id="Layer_1" data-name="Layer 1" xmlns="http://www.w3.org/2000/svg" viewBox="0 0 50 50"><defs><style>.cls-1{fill:none;}.cls-2{fill:#ccc;}</style></defs><title>ico_volatilidad_gris</title><rect class="cls-1" width="50" height="50"/><path class="cls-2" d="M37.15,19.64l1.71,1.27.86-1.12L38,18.52Zm1.73-2.23,1.71,1.27.86-1.12-1.71-1.27Zm1.73-2.23,1.71,1.27.86-1.12-1.71-1.27Zm-5.18,6.7,1.71,1.27L38,22l-1.71-1.27Zm11.13-6.64-.32-3.18c0-.38-.09-.92-.12-1.2a.52.52,0,0,0-.57-.45l-1.23.12L41,10.84,39.91,11a.5.5,0,0,0-.36.59l.11,1.1c0,.3.23.53.44.51L41.2,13l1.73-.17.91-.09a.19.19,0,0,1,.21.15c0,.09.05.49.09.87l.18,1.73.11,1.09c0,.21.32.36.66.32l1.12-.11a.46.46,0,0,0,.45-.48l-.12-1.12M33.69,24.1l1.71,1.27.86-1.12L34.56,23ZM30.85,32a2.47,2.47,0,1,1,2.52-2.47A2.49,2.49,0,0,1,30.85,32M23,20.68a2.47,2.47,0,1,1,2.52-2.47A2.49,2.49,0,0,1,23,20.68M7.27,38.21a2.47,2.47,0,1,1,2.52-2.47,2.49,2.49,0,0,1-2.52,2.47M34.54,26.49l-1.71-1.27-.54.7a3.93,3.93,0,0,0-2.38-.15l-3.77-5.25a3.79,3.79,0,0,0,.79-2.31,3.94,3.94,0,0,0-7.87,0A3.82,3.82,0,0,0,19.49,20L8.62,32.11a4,4,0,0,0-1.35-.24,3.87,3.87,0,1,0,3.94,3.86A3.81,3.81,0,0,0,10.76,34L21.63,21.84a4,4,0,0,0,1.35.24,4.09,4.09,0,0,0,.73-.07l3.87,5.38a3.8,3.8,0,0,0-.65,2.13,3.94,3.94,0,0,0,7.87,0,3.8,3.8,0,0,0-.8-2.32Z"/></svg>